<svg xmlns="http://www.w3.org/2000/svg" viewBox="0 0 96 96" id="chassis">
    <path filter="drop-shadow( 1px 1px 1px rgba(0, 0, 0, .7))" fill="white" d="M16.75 12.17a1 1 0 00-1 1v7a1 1 0 002 0v-7A1 1 0 0016.75 12.17zM12.28 5.5a1 1 0 00-1 1V8.83a1 1 0 002 0V6.5A1 1 0 0012.28 5.5zM7.79 5.5a1 1 0 00-1 1V16.67a1 1 0 102 0V6.5A1 1 0 007.79 5.5zM79.26 21.23a1 1 0 001-1v-7a1 1 0 00-2 0v7A1 1 0 0079.26 21.23zM83.73 9.9a1 1 0 001-1V6.56a1 1 0 00-2 0V8.9A1 1 0 0083.73 9.9zM88.22 17.73a1 1 0 001-1V6.56a1 1 0 00-2 0V16.73A1 1 0 0088.22 17.73z"></path>
    <path filter="drop-shadow( 1px 1px 1px rgba(0, 0, 0, .7))" fill="white" d="M70.6,22l3,1.67a5.71,5.71,0,0,0,5.66,5.08h9A5.69,5.69,0,0,0,93.88,23V5.75A5.69,5.69,0,0,0,88.19.06H79.26A5.69,5.69,0,0,0,73.6,5.15l-3,1.66a2.91,2.91,0,0,0-1.5,2.54v1.4H61.88a3.14,3.14,0,0,0-3-2.17h-2a3.08,3.08,0,0,0-3-2.46H42.11a3.09,3.09,0,0,0-3,2.46h-2a3.14,3.14,0,0,0-3,2.17H26.9V9.29a2.91,2.91,0,0,0-1.5-2.55l-3-1.66A5.71,5.71,0,0,0,16.75,0H7.81A5.69,5.69,0,0,0,2.12,5.69V23a5.7,5.7,0,0,0,5.65,5.69h9a5.71,5.71,0,0,0,5.66-5.09l3-1.66a2.9,2.9,0,0,0,1.5-2.54V18H34V27.1c-11.24,6.75-10.55,6.32-10.7,6.47a1,1,0,0,0-.26.68c0,26.65-.06,26,.12,26.22s-.89-.56,10.84,8.36v8.91c-1,.37-1.21.28-7.06.28V76.56A2.89,2.89,0,0,0,25.4,74l-3-1.67a5.71,5.71,0,0,0-5.66-5.08H7.81A5.69,5.69,0,0,0,2.12,73V90.25a5.69,5.69,0,0,0,5.65,5.69h9a5.7,5.7,0,0,0,5.66-5.09l3-1.66a2.9,2.9,0,0,0,1.5-2.54V85.31h5.44a5.23,5.23,0,0,1,4.06,2c5.32,6.67,17.84,6.71,23.21,0a5.2,5.2,0,0,1,4.06-2H69.1v1.4a2.93,2.93,0,0,0,1.5,2.55l3,1.66A5.69,5.69,0,0,0,79.26,96h9a5.69,5.69,0,0,0,5.63-5.69V73a5.69,5.69,0,0,0-5.69-5.69H79.26a5.71,5.71,0,0,0-5.66,5.08l-3,1.67a2.92,2.92,0,0,0-1.5,2.54V78c-5.85,0-6,.09-7.06-.28V68.83c11.46-8.71,10.77-8.12,10.88-8.44s.08.93.08-26.14a1.08,1.08,0,0,0-.16-.55c-.19-.3.38.11-10.8-6.6V18H69.1v1.4A2.91,2.91,0,0,0,70.6,22ZM78.26,2.2V7.4a1,1,0,1,0,2,0V2.06h7.93a3.69,3.69,0,0,1,3.69,3.69V23a3.69,3.69,0,0,1-2.66,3.54v-4a1,1,0,1,0-2,0v4.13H84.73v-10a1,1,0,0,0-2,0v10H79.26A3.69,3.69,0,0,1,75.57,23V5.75A3.7,3.7,0,0,1,78.26,2.2ZM71.1,9.35a.9.9,0,0,1,.47-.79l2-1.11V21.34l-2-1.11a.9.9,0,0,1-.47-.79Zm-11.61,1.4c.61.37.55,1,.55,1.42v4.89a1.15,1.15,0,0,1-.55,1c-.33.21-.39.17-2.53.17V10.58C58.71,10.58,59.11,10.5,59.49,10.75ZM71,59H60.84V35.25H71ZM49.65,71.06a16.44,16.44,0,0,0-3.29,0V22.67h3.29ZM25,35.25H35.17V59H25ZM36,20c.73.28,1.12.22,3.14.22a3.08,3.08,0,0,0,3,2.46h2.25v4H36Zm8.4,8.68v4.58H38.28L42,28.67Zm-7.19,6.58h7.19V59H37.17ZM44.36,61v6.33H42.11L38,61Zm14.48-2H51.65V35.25h7.19Zm-7.19,2H58l-4.11,6.33H51.65Zm0-27.75V28.67H54l3.76,4.58Zm0-6.58v-4H53.9a3.07,3.07,0,0,0,3-2.46c2,0,2.41.07,3.14-.22v6.68ZM41,9.19a1.07,1.07,0,0,1,1.07-1.07H53.9A1.07,1.07,0,0,1,55,9.19V19.6a1.07,1.07,0,0,1-1.06,1.07H42.11A1.07,1.07,0,0,1,41,19.6Zm-3.93,1.39H39v7.63H37.11A1.17,1.17,0,0,1,36,17.06V11.73A1.17,1.17,0,0,1,37.11,10.58ZM16.75,26.67H13.28v-10a1,1,0,0,0-2,0v10H8.79V22.54a1,1,0,1,0-2,0v4A3.69,3.69,0,0,1,4.12,23V5.69A3.69,3.69,0,0,1,7.81,2h7.94V7.33a1,1,0,0,0,2,0V2.14a3.69,3.69,0,0,1,2.69,3.55V23A3.7,3.7,0,0,1,16.75,26.67Zm8.15-7.29a.91.91,0,0,1-.46.79l-2,1.11V7.39l2,1.1a.93.93,0,0,1,.46.8Zm2-6.63H34V16H26.9Zm8.34,15.92h4.22L35.7,33.25H27.61ZM27,61h8.66l4.1,6.33H35.3Zm9,8.33h8.4v2A14,14,0,0,0,36,76.48ZM16.75,93.94H13.28v-10a1,1,0,0,0-2,0v10H8.79V89.81a1,1,0,0,0-2,0v4a3.69,3.69,0,0,1-2.67-3.54V73a3.69,3.69,0,0,1,3.69-3.69h7.94V74.6a1,1,0,0,0,2,0V69.41A3.69,3.69,0,0,1,20.44,73V90.25A3.7,3.7,0,0,1,16.75,93.94Zm8.15-7.29a.9.9,0,0,1-.47.79l-2,1.11V74.66l2,1.1a.94.94,0,0,1,.46.8ZM78.26,69.48v5.19a1,1,0,0,0,2,0V69.33h7.93A3.69,3.69,0,0,1,91.88,73V90.31a3.67,3.67,0,0,1-2.66,3.54v-4a1,1,0,0,0-2,0V94H84.73V84a1,1,0,0,0-2,0V94H79.26a3.69,3.69,0,0,1-3.69-3.69V73A3.68,3.68,0,0,1,78.26,69.48ZM71.1,76.62a.9.9,0,0,1,.47-.79l2-1.11V88.61l-2-1.1a.92.92,0,0,1-.47-.8ZM63.67,80H69.1v3.29H63.67A7.19,7.19,0,0,0,58,86.09c-4.52,5.66-15.52,5.68-20.08,0a7.19,7.19,0,0,0-5.62-2.78H26.9V80h5.44A7.23,7.23,0,0,0,38,77.25c4.57-5.7,15.56-5.66,20.08,0A7.27,7.27,0,0,0,63.67,80Zm-12-8.66v-2H60v7.15A14,14,0,0,0,51.65,71.36Zm9.06-4H56.27L60.37,61H69ZM68.4,33.25H60.31l-3.76-4.58h4.22ZM62,16V12.75H69.1V16Z"></path>
    <path filter="drop-shadow( 1px 1px 1px rgba(0, 0, 0, .7))" fill="white" d="M16.75 79.44a1 1 0 00-1 1v7a1 1 0 002 0v-7A1 1 0 0016.75 79.44zM12.28 72.77a1 1 0 00-1 1V76.1a1 1 0 002 0V73.77A1 1 0 0012.28 72.77zM7.79 72.77a1 1 0 00-1 1V83.94a1 1 0 002 0V73.77A1 1 0 007.79 72.77zM79.26 88.5a1 1 0 001-1v-7a1 1 0 00-2 0v7A1 1 0 0079.26 88.5zM83.73 77.17a1 1 0 001-1V73.83a1 1 0 00-2 0v2.34A1 1 0 0083.73 77.17zM88.22 85a1 1 0 001-1V73.83a1 1 0 00-2 0V84A1 1 0 0088.22 85zM51.65 76.7A6.16 6.16 0 1052.36 86 6.14 6.14 0 0051.65 76.7zm-7.21 2.81l5.72 5.72A4.17 4.17 0 0144.44 79.51zm7.13 4.31L45.85 78.1a4.17 4.17 0 015.72 5.72z"></path>
</svg>